<svg xmlns="http://www.w3.org/2000/svg" viewBox="0 0 32 32">
  <defs>
    <linearGradient id="g" x1="0%" y1="0%" x2="100%" y2="100%">
      <stop offset="0%" style="stop-color:#6c5ce7"/>
      <stop offset="100%" style="stop-color:#00d2ff"/>
    </linearGradient>
  </defs>
  <path d="M8 6 C6 6 4 8 4 10 L4 14 C4 15 3 16 2 16.5 L4 18 L4 22 C4 24 6 26 8 26 M24 6 C26 6 28 8 28 10 L28 14 C28 15 29 16 30 16.5 L28 18 L28 22 C28 24 26 26 24 26" stroke="url(#g)" stroke-width="2.5" fill="none" stroke-linecap="round"/>
  <circle cx="12" cy="16" r="2" fill="#6c5ce7"/>
  <circle cx="20" cy="16" r="2" fill="#00d2ff"/>
</svg>
